
<svg width="25px" height="28px" viewBox="0 0 25 28" version="1.1" xmlns="http://www.w3.org/2000/svg" xmlns:xlink="http://www.w3.org/1999/xlink">
    <desc>Created by Gawee.Narak@gmail.com</desc>
    <g id="User" transform="translate(0.000000, 0.000000)">
        <g id="Group">
            <path fill="white" d="M24.0693386,22.9820306 C23.217922,18.3701907 19.2091689,15 14.5263776,15 L9.66620787,15 C4.87698954,15 0.832760723,18.4766178 0.0522955128,23.1948847 L0.0522955128,23.1948847 C-0.337937092,25.571756 1.50679886,27.7002975 3.88367018,27.7002975 L20.2734396,27.7002975 C22.6857866,27.7002975 24.5305226,25.5008046 24.1048143,23.1239333 L24.0693386,22.9820306 L24.0693386,22.9820306 Z" id="Shape"></path>
            <path fill="white" d="M6.92336567,11.3084693 C9.69046959,14.0755732 14.1604067,14.1465246 16.998462,11.4503721 L17.0694134,11.3794207 C19.5172361,9.03802507 19.7655659,5.2421261 17.6015488,2.61692493 L17.6015488,2.61692493 C14.6570664,-0.930644202 9.19380991,-0.85969282 6.3557546,2.7588277 L6.3557546,2.7588277 C4.36911589,5.31307748 4.58197004,8.96707369 6.88788997,11.2729936 L6.92336567,11.3084693 L6.92336567,11.3084693 Z" id="Shape"></path>
        </g>
    </g>
</svg>